# xmcd
#
# Track frame offsets: 
#        150
#        26943
#        55860
#        74770
#        104772
#        134391
#        162641
#        199006
#        236366
#        263744
#        292883
#        318403
#
# Disc length: 4453 seconds
#
# Revision: 2
# Processed by: cddbd v1.5.1PL0 Copyright (c) Steve Scherf et al.
# Submitted via: ExactAudioCopy v0.95a5
#
DISCID=b911630c
DTITLE=NajPonk Trio - Ballads Blues and More
DYEAR=2005
DGENRE=Jazz
TTITLE0=For Funky Bobby Timmons (take2) (Najponk)
TTITLE1=Autumn Leaves (Joseph Kosma)
TTITLE2=Brother Joe (Najponk)
TTITLE3=The Street of Dreams (Victor Young)
TTITLE4=What a Difference a Day Made (Maria Grever)
TTITLE5=You Look Good to Me (Clement Wells)
TTITLE6=Where Are You (Jimmy McHugh)
TTITLE7=Blues for Mr. PV (Najponk, Balzar, Sulc)
TTITLE8=You Don't Know What Love Is (Raye, Gene de Paul)
TTITLE9=For Funky Bobby Timmons (take1) (Najponk)
TTITLE10=Bossa De Luxe (Hank Mobley)
TTITLE11=Careless Love (William C. Handy)
EXTD=YEAR: 2005
EXTT0=
EXTT1=
EXTT2=
EXTT3=
EXTT4=
EXTT5=
EXTT6=
EXTT7=
EXTT8=
EXTT9=
EXTT10=
EXTT11=
PLAYORDER=
